<svg width="86" height="85" viewBox="0 0 86 85" fill="none" xmlns="http://www.w3.org/2000/svg">
<path d="M57.1667 35.4167H28.8333C26.8854 35.4167 25.2917 37.0105 25.2917 38.9584C25.2917 40.9063 26.8854 42.5001 28.8333 42.5001H57.1667C59.1146 42.5001 60.7083 40.9063 60.7083 38.9584C60.7083 37.0105 59.1146 35.4167 57.1667 35.4167ZM67.7917 10.6251H64.25V7.08341C64.25 5.1355 62.6562 3.54175 60.7083 3.54175C58.7604 3.54175 57.1667 5.1355 57.1667 7.08341V10.6251H28.8333V7.08341C28.8333 5.1355 27.2396 3.54175 25.2917 3.54175C23.3438 3.54175 21.75 5.1355 21.75 7.08341V10.6251H18.2083C14.2771 10.6251 11.125 13.8126 11.125 17.7084V67.2917C11.125 71.1876 14.2771 74.3751 18.2083 74.3751H67.7917C71.6875 74.3751 74.875 71.1876 74.875 67.2917V17.7084C74.875 13.8126 71.6875 10.6251 67.7917 10.6251ZM64.25 67.2917H21.75C19.8021 67.2917 18.2083 65.698 18.2083 63.7501V28.3334H67.7917V63.7501C67.7917 65.698 66.1979 67.2917 64.25 67.2917ZM46.5417 49.5834H28.8333C26.8854 49.5834 25.2917 51.1772 25.2917 53.1251C25.2917 55.073 26.8854 56.6667 28.8333 56.6667H46.5417C48.4896 56.6667 50.0833 55.073 50.0833 53.1251C50.0833 51.1772 48.4896 49.5834 46.5417 49.5834Z" fill="black"/>
</svg>
