<svg width="120" height="120" viewBox="0 0 120 120" fill="none" xmlns="http://www.w3.org/2000/svg">
<path d="M20 74C25.5 74 30 69.5 30 64C30 58.5 25.5 54 20 54C14.5 54 10 58.5 10 64C10 69.5 14.5 74 20 74ZM25.65 79.5C23.8 79.2 21.95 79 20 79C15.05 79 10.35 80.05 6.1 81.9C2.4 83.5 0 87.1 0 91.15V99H22.5V90.95C22.5 86.8 23.65 82.9 25.65 79.5ZM100 74C105.5 74 110 69.5 110 64C110 58.5 105.5 54 100 54C94.5 54 90 58.5 90 64C90 69.5 94.5 74 100 74ZM120 91.15C120 87.1 117.6 83.5 113.9 81.9C109.65 80.05 104.95 79 100 79C98.05 79 96.2 79.2 94.35 79.5C96.35 82.9 97.5 86.8 97.5 90.95V99H120V91.15ZM81.2 77.25C75.35 74.65 68.15 72.75 60 72.75C51.85 72.75 44.65 74.7 38.8 77.25C33.4 79.65 30 85.05 30 90.95V99H90V90.95C90 85.05 86.6 79.65 81.2 77.25ZM40.35 89C40.8 87.85 41 87.05 44.9 85.55C49.75 83.65 54.85 82.75 60 82.75C65.15 82.75 70.25 83.65 75.1 85.55C78.95 87.05 79.15 87.85 79.65 89H40.35ZM60 49C62.75 49 65 51.25 65 54C65 56.75 62.75 59 60 59C57.25 59 55 56.75 55 54C55 51.25 57.25 49 60 49ZM60 39C51.7 39 45 45.7 45 54C45 62.3 51.7 69 60 69C68.3 69 75 62.3 75 54C75 45.7 68.3 39 60 39Z" fill="black"/>
</svg>
